<?xml version="1.0" encoding="UTF-8"?>
<svg xmlns="http://www.w3.org/2000/svg" version="1.1" viewBox="0 0 1800 600">
  <!-- Generator: Adobe Illustrator 29.3.1, SVG Export Plug-In . SVG Version: 2.1.0 Build 151)  -->
  <defs>
    <style>
      .st0 {
        fill: #9a5e26;
      }

      .st1 {
        fill: #faa81a;
      }

      .st2 {
        fill: #414142;
      }
    </style>
  </defs>
  <g id="Layer_1">
    <rect class="st1" x="0" y="0" width="1800" height="600"/>
  </g>
  <g id="Boton">
    <g>
      <path d="M1132.8,64.3v9.8h.3c2.6-4.2,5.8-7.2,9.8-9.1,4-1.9,8.3-2.8,13.1-2.8s11.2,1.1,15.6,3.4c4.4,2.3,8,5.3,10.9,9.1,2.9,3.8,5,8.2,6.4,13.2,1.4,5,2.1,10.2,2.1,15.7s-.7,10.1-2.1,14.9c-1.4,4.8-3.5,9-6.3,12.6-2.8,3.7-6.3,6.6-10.6,8.8-4.2,2.2-9.1,3.3-14.8,3.3s-9.1-1-13.2-2.9c-4-1.9-7.3-4.8-9.9-8.6h-.3v36.4h-21.1v-103.8h20.1ZM1160.2,125.3c2.3-1.4,4.2-3.2,5.6-5.4,1.4-2.2,2.5-4.8,3-7.8.6-3,.9-6,.9-9.1s-.3-6.1-1-9.1c-.6-3-1.7-5.6-3.2-8-1.5-2.3-3.4-4.2-5.7-5.7-2.3-1.4-5.2-2.2-8.5-2.2s-6.4.7-8.7,2.2c-2.3,1.4-4.2,3.3-5.7,5.6-1.4,2.3-2.5,4.9-3,7.9-.6,3-.9,6-.9,9.2s.3,6.1,1,9.1,1.7,5.6,3.1,7.8c1.4,2.2,3.3,4,5.7,5.4,2.4,1.4,5.3,2.1,8.6,2.1s6.4-.7,8.7-2.1Z"/>
      <path d="M1222.5,122.7c3.2,3.1,7.7,4.6,13.7,4.6s7.9-1.1,11-3.2c3.1-2.1,5-4.4,5.6-6.8h18.6c-3,9.2-7.5,15.8-13.7,19.8-6.1,4-13.6,5.9-22.3,5.9s-11.5-1-16.4-2.9c-4.9-1.9-9-4.7-12.3-8.3-3.4-3.6-6-7.8-7.8-12.8-1.8-5-2.7-10.4-2.7-16.4s.9-11.1,2.8-16.1c1.9-5,4.6-9.2,8-12.9,3.5-3.6,7.6-6.5,12.4-8.5,4.8-2.1,10.1-3.1,16-3.1s12.2,1.3,17.1,3.8c4.9,2.5,8.8,5.9,12,10.2,3.1,4.3,5.4,9.1,6.8,14.6,1.4,5.5,1.9,11.2,1.5,17.1h-55.5c.3,6.8,2,11.8,5.2,14.9ZM1246.3,82.3c-2.5-2.8-6.4-4.2-11.5-4.2s-6.2.6-8.4,1.7c-2.2,1.1-4,2.6-5.4,4.2-1.3,1.7-2.3,3.5-2.8,5.4-.5,1.9-.9,3.6-1,5.1h34.4c-1-5.4-2.8-9.4-5.3-12.2Z"/>
      <path d="M1298.1,64.3v14.3h.3c1-2.4,2.3-4.6,4-6.6,1.7-2,3.6-3.8,5.8-5.2,2.2-1.4,11.1-5.6,19.3-2.5v18.3c-1-.2-2.2-.4-3.6-.5-1.4-.2-2.7-.2-4-.2-3.9,0-7.1.6-9.8,1.9-2.7,1.3-4.8,3-6.5,5.3-1.6,2.2-2.8,4.8-3.5,7.8-.7,3-1,6.2-1,9.7v34.6h-21.1v-76.9h20.1Z"/>
      <path d="M1327.6,78.4v-14.1h12.6v-5.9c0-6.8,2.1-12.4,6.4-16.8,4.3-4.4,10.7-6.5,19.3-6.5s3.8,0,5.6.2c1.9.1,3.7.3,5.5.4v15.8c-2.5-.3-5.1-.4-7.7-.4s-4.9.7-6.2,2c-1.2,1.3-1.9,3.6-1.9,6.8v4.6h14.6v14.1h-14.6v62.8h-21.1v-62.8h-12.6Z"/>
      <path d="M1384.5,52.4v-17.4h21.1v17.4h-21.1ZM1405.7,64.3v76.9h-21.1v-76.9h21.1Z"/>
      <path d="M1434.2,35v106.2h-21.1V35h21.1Z"/>
      <path d="M1537.4,131.4c-2.5,4.2-5.7,7.2-9.7,9-4,1.8-8.6,2.8-13.6,2.8s-10.8-1.1-15.2-3.3c-4.4-2.2-8-5.3-10.8-9.1-2.8-3.8-5-8.2-6.4-13.2-1.4-5-2.2-10.1-2.2-15.5s.7-10.1,2.2-14.9c1.4-4.8,3.6-9,6.4-12.7,2.8-3.7,6.4-6.6,10.6-8.8,4.3-2.2,9.2-3.3,14.9-3.3s8.9,1,13,2.9c4.1,1.9,7.4,4.8,9.7,8.6h.3v-38.7h21.1v106.2h-20.1v-9.8h-.3ZM1536.5,93.4c-.6-2.9-1.6-5.5-3-7.7-1.4-2.2-3.3-4-5.6-5.4-2.3-1.4-5.2-2.1-8.6-2.1s-6.4.7-8.8,2.1c-2.4,1.4-4.3,3.2-5.7,5.5-1.4,2.3-2.5,4.9-3.1,7.8-.6,2.9-1,6-1,9.1s.3,5.9,1,8.9c.7,3,1.8,5.6,3.3,8,1.5,2.3,3.5,4.2,5.8,5.7,2.3,1.4,5.1,2.2,8.4,2.2s6.4-.7,8.7-2.1c2.3-1.4,4.2-3.2,5.6-5.6,1.4-2.3,2.4-5,3-8,.6-3,.9-6,.9-9.2s-.3-6.2-.9-9.1Z"/>
      <path d="M1592.5,122.7c3.2,3.1,7.7,4.6,13.7,4.6s7.9-1.1,11-3.2c3.1-2.1,5-4.4,5.6-6.8h18.6c-3,9.2-7.5,15.8-13.7,19.8-6.1,4-13.6,5.9-22.3,5.9s-11.5-1-16.4-2.9c-4.9-1.9-9-4.7-12.3-8.3-3.4-3.6-6-7.8-7.8-12.8-1.8-5-2.7-10.4-2.7-16.4s.9-11.1,2.8-16.1c1.9-5,4.6-9.2,8-12.9,3.5-3.6,7.6-6.5,12.4-8.5,4.8-2.1,10.1-3.1,16-3.1s12.2,1.3,17.1,3.8c4.9,2.5,8.8,5.9,12,10.2,3.1,4.3,5.4,9.1,6.8,14.6,1.4,5.5,1.9,11.2,1.5,17.1h-55.5c.3,6.8,2,11.8,5.2,14.9ZM1616.4,82.3c-2.5-2.8-6.4-4.2-11.5-4.2s-6.2.6-8.4,1.7c-2.2,1.1-4,2.6-5.4,4.2-1.3,1.7-2.3,3.5-2.8,5.4-.5,1.9-.9,3.6-1,5.1h34.4c-1-5.4-2.8-9.4-5.3-12.2Z"/>
      <path d="M1111.8,203.6c.3-5,1.5-9.1,3.7-12.3,2.2-3.3,5-5.9,8.3-7.9,3.4-2,7.2-3.4,11.4-4.2,4.2-.8,8.4-1.3,12.7-1.3s7.8.3,11.7.8c4,.5,7.6,1.6,10.9,3.2,3.3,1.6,5.9,3.8,8,6.6,2.1,2.8,3.1,6.6,3.1,11.2v40c0,3.5.2,6.8.6,10,.4,3.2,1.1,5.6,2.1,7.1h-21.4c-.4-1.2-.7-2.4-1-3.6-.2-1.2-.4-2.5-.5-3.8-3.4,3.5-7.3,5.9-11.9,7.3-4.6,1.4-9.2,2.1-14,2.1s-7.1-.4-10.3-1.3c-3.2-.9-5.9-2.3-8.3-4.2-2.4-1.9-4.2-4.3-5.6-7.1-1.3-2.9-2-6.3-2-10.3s.8-8,2.3-10.8c1.5-2.8,3.5-5.1,5.9-6.8,2.4-1.7,5.2-2.9,8.3-3.8,3.1-.8,6.3-1.5,9.4-2,3.2-.5,6.3-.9,9.4-1.2,3.1-.3,5.8-.7,8.2-1.3,2.4-.6,4.3-1.5,5.6-2.6,1.4-1.1,2-2.8,1.9-5,0-2.3-.4-4.1-1.1-5.4-.7-1.3-1.7-2.4-3-3.1-1.2-.7-2.7-1.2-4.3-1.5s-3.4-.4-5.3-.4c-4.2,0-7.4.9-9.8,2.7-2.4,1.8-3.8,4.8-4.2,8.9h-21.1ZM1160.6,219.3c-.9.8-2,1.4-3.3,1.9-1.3.4-2.8.8-4.3,1.1-1.5.3-3.1.5-4.8.7s-3.4.4-5.1.7c-1.6.3-3.2.7-4.7,1.2-1.5.5-2.9,1.2-4,2-1.1.8-2.1,1.9-2.7,3.2-.7,1.3-1,2.9-1,4.9s.3,3.5,1,4.8c.7,1.3,1.6,2.3,2.8,3,1.2.7,2.6,1.3,4.2,1.6,1.6.3,3.2.4,4.9.4,4.2,0,7.4-.7,9.7-2.1,2.3-1.4,4-3,5.1-5,1.1-1.9,1.8-3.9,2-5.9.2-2,.4-3.6.4-4.8v-7.9Z"/>
      <path d="M1186.3,194.1v-14.1h12.6v-5.9c0-6.8,2.1-12.4,6.4-16.8,4.3-4.4,10.7-6.5,19.3-6.5s3.8,0,5.6.2,3.7.3,5.5.4v15.8c-2.5-.3-5.1-.4-7.7-.4s-4.9.7-6.2,2c-1.2,1.3-1.9,3.6-1.9,6.8v4.6h14.6v14.1h-14.6v62.8h-21.1v-62.8h-12.6Z"/>
      <path d="M1246.4,168.1v-17.4h21.1v17.4h-21.1ZM1267.5,180v76.9h-21.1v-76.9h21.1Z"/>
      <path d="M1299.2,150.7v106.2h-21.1v-106.2h21.1Z"/>
      <path d="M1310,168.1v-17.4h21.1v17.4h-21.1ZM1331.2,180v76.9h-21.1v-76.9h21.1Z"/>
      <path d="M1343.2,203.6c.3-5,1.5-9.1,3.7-12.3,2.2-3.3,5-5.9,8.3-7.9,3.4-2,7.2-3.4,11.4-4.2,4.2-.8,8.4-1.3,12.7-1.3s7.8.3,11.7.8c4,.5,7.6,1.6,10.9,3.2,3.3,1.6,5.9,3.8,8,6.6,2.1,2.8,3.1,6.6,3.1,11.2v40c0,3.5.2,6.8.6,10,.4,3.2,1.1,5.6,2.1,7.1h-21.4c-.4-1.2-.7-2.4-1-3.6-.2-1.2-.4-2.5-.5-3.8-3.4,3.5-7.3,5.9-11.9,7.3-4.6,1.4-9.2,2.1-14,2.1s-7.1-.4-10.3-1.3c-3.2-.9-5.9-2.3-8.3-4.2-2.4-1.9-4.2-4.3-5.6-7.1-1.3-2.9-2-6.3-2-10.3s.8-8,2.3-10.8c1.5-2.8,3.5-5.1,5.9-6.8,2.4-1.7,5.2-2.9,8.3-3.8,3.1-.8,6.3-1.5,9.4-2,3.2-.5,6.3-.9,9.4-1.2,3.1-.3,5.8-.7,8.2-1.3,2.4-.6,4.3-1.5,5.6-2.6,1.4-1.1,2-2.8,1.9-5,0-2.3-.4-4.1-1.1-5.4-.7-1.3-1.7-2.4-3-3.1-1.2-.7-2.7-1.2-4.3-1.5s-3.4-.4-5.3-.4c-4.2,0-7.4.9-9.8,2.7-2.4,1.8-3.8,4.8-4.2,8.9h-21.1ZM1392,219.3c-.9.8-2,1.4-3.3,1.9-1.3.4-2.8.8-4.3,1.1-1.5.3-3.1.5-4.8.7s-3.4.4-5.1.7c-1.6.3-3.2.7-4.7,1.2-1.5.5-2.9,1.2-4,2-1.1.8-2.1,1.9-2.7,3.2-.7,1.3-1,2.9-1,4.9s.3,3.5,1,4.8,1.6,2.3,2.8,3c1.2.7,2.6,1.3,4.2,1.6,1.6.3,3.2.4,4.9.4,4.2,0,7.4-.7,9.7-2.1,2.3-1.4,4-3,5.1-5,1.1-1.9,1.8-3.9,2-5.9.2-2,.4-3.6.4-4.8v-7.9Z"/>
      <path d="M1480.3,247.1c-2.5,4.2-5.7,7.2-9.7,9-4,1.8-8.6,2.7-13.6,2.7s-10.8-1.1-15.2-3.3c-4.4-2.2-8-5.3-10.8-9.1-2.8-3.8-5-8.2-6.4-13.2-1.4-5-2.2-10.1-2.2-15.5s.7-10.1,2.2-14.9c1.4-4.8,3.6-9,6.4-12.7,2.8-3.7,6.4-6.6,10.6-8.8,4.3-2.2,9.2-3.3,14.9-3.3s8.9,1,13,2.9c4.1,1.9,7.4,4.8,9.7,8.6h.3v-38.7h21.1v106.2h-20.1v-9.8h-.3ZM1479.4,209.1c-.6-2.9-1.6-5.5-3-7.7-1.4-2.2-3.3-4-5.6-5.4-2.3-1.4-5.2-2.1-8.6-2.1s-6.4.7-8.8,2.1c-2.4,1.4-4.3,3.2-5.7,5.5-1.4,2.3-2.5,4.9-3.1,7.8-.6,2.9-1,6-1,9.1s.3,5.9,1,8.9c.7,3,1.8,5.6,3.3,8,1.5,2.3,3.5,4.2,5.8,5.6,2.3,1.4,5.1,2.2,8.4,2.2s6.4-.7,8.7-2.1c2.3-1.4,4.2-3.2,5.6-5.6,1.4-2.3,2.4-5,3-8,.6-3,.9-6,.9-9.2s-.3-6.2-.9-9.1Z"/>
      <path d="M1513.3,201.8c1.9-5,4.6-9.3,8-12.8,3.5-3.5,7.6-6.2,12.5-8.2,4.9-1.9,10.3-2.9,16.4-2.9s11.5,1,16.4,2.9c4.9,1.9,9.1,4.7,12.6,8.2,3.5,3.5,6.1,7.8,8,12.8,1.9,5,2.8,10.6,2.8,16.7s-.9,11.7-2.8,16.7-4.6,9.2-8,12.7c-3.5,3.5-7.7,6.2-12.6,8.1-4.9,1.9-10.4,2.8-16.4,2.8s-11.5-.9-16.4-2.8c-4.9-1.9-9-4.6-12.5-8.1-3.5-3.5-6.1-7.8-8-12.7-1.9-5-2.8-10.5-2.8-16.7s.9-11.7,2.8-16.7ZM1532.5,227.5c.6,2.9,1.6,5.6,3,7.9,1.4,2.3,3.3,4.2,5.7,5.6,2.4,1.4,5.4,2.1,8.9,2.1s6.6-.7,9-2.1c2.4-1.4,4.4-3.2,5.8-5.6,1.4-2.3,2.5-5,3-7.9.6-2.9.9-5.9.9-9s-.3-6.1-.9-9.1c-.6-3-1.6-5.6-3-7.9-1.4-2.3-3.4-4.1-5.8-5.6-2.4-1.4-5.4-2.2-9-2.2s-6.5.7-8.9,2.2c-2.4,1.4-4.3,3.3-5.7,5.6-1.4,2.3-2.5,4.9-3,7.9-.6,3-.9,6-.9,9.1s.3,6.1.9,9Z"/>
      <path d="M1617.8,237.8c.9,1.6,2.2,3,3.6,4,1.5,1,3.2,1.8,5.1,2.3,1.9.5,3.9.7,6,.7s3-.2,4.7-.5c1.6-.3,3.1-.9,4.5-1.6,1.3-.7,2.4-1.7,3.3-3,.9-1.2,1.3-2.8,1.3-4.7,0-3.2-2.1-5.6-6.3-7.1-4.2-1.6-10.1-3.2-17.6-4.8-3.1-.7-6.1-1.5-9-2.5-2.9-.9-5.5-2.2-7.8-3.7-2.3-1.5-4.1-3.5-5.5-5.8-1.4-2.3-2.1-5.2-2.1-8.6,0-5,1-9,2.9-12.2,1.9-3.2,4.5-5.7,7.7-7.5,3.2-1.8,6.7-3.1,10.7-3.9,4-.7,8-1.1,12.2-1.1s8.2.4,12.1,1.2c3.9.8,7.4,2.1,10.5,4,3.1,1.9,5.6,4.4,7.7,7.5,2,3.1,3.2,7.1,3.6,11.8h-20.1c-.3-4.1-1.8-6.8-4.6-8.3-2.8-1.4-6.1-2.2-9.8-2.2s-2.5,0-3.9.2c-1.4.2-2.7.5-3.8,1-1.1.5-2.1,1.2-2.9,2.2s-1.2,2.2-1.2,3.8.7,3.4,2.1,4.6c1.4,1.2,3.2,2.2,5.4,2.9,2.2.7,4.8,1.4,7.7,2,2.9.6,5.8,1.2,8.8,1.9,3.1.7,6.1,1.5,9,2.5,2.9,1,5.5,2.3,7.8,3.9,2.3,1.6,4.1,3.7,5.5,6.1,1.4,2.4,2.1,5.4,2.1,9,0,5.1-1,9.3-3,12.7-2,3.4-4.7,6.2-8,8.3-3.3,2.1-7,3.5-11.2,4.4-4.2.8-8.5,1.3-12.9,1.3s-8.8-.4-13.1-1.3c-4.3-.9-8.1-2.4-11.4-4.5-3.3-2.1-6-4.8-8.2-8.3-2.1-3.4-3.3-7.7-3.5-12.9h20.1c0,2.3.5,4.2,1.4,5.9Z"/>
      <g>
        <path class="st0" d="M1800,61.5h-53c0-14.6,11.9-26.5,26.5-26.5h26.5v26.5Z"/>
        <path class="st0" d="M1800,114.5h-53c0-14.6,11.9-26.5,26.5-26.5h26.5v26.5Z"/>
        <path class="st0" d="M1800,167.5h-53c0-14.6,11.9-26.5,26.5-26.5h26.5v26.5Z"/>
        <path class="st0" d="M1720.5,88h-53v-26.5h79.5c0,14.6-11.9,26.5-26.5,26.5Z"/>
        <path class="st0" d="M1720.5,141h-53v-26.5h79.5c0,14.6-11.9,26.5-26.5,26.5Z"/>
      </g>
    </g>
    <g>
      <g>
        <path d="M184.5,237.9c0,3.3-.6,6.4-1.7,9.1-1.1,2.7-2.7,5.1-4.8,7-2.1,2-4.6,3.5-7.5,4.6-2.9,1.1-6.2,1.6-9.8,1.6s-6.9-.5-9.9-1.6c-2.9-1.1-5.4-2.6-7.4-4.6-2-2-3.6-4.3-4.7-7-1.1-2.7-1.6-5.8-1.6-9.1v-34.5h13.3v33.4c0,1.5.2,2.9.6,4.3.4,1.4,1,2.6,1.8,3.6.8,1.1,1.9,1.9,3.2,2.5,1.3.6,2.9.9,4.8.9s3.5-.3,4.8-.9c1.3-.6,2.4-1.5,3.2-2.5.8-1.1,1.4-2.3,1.8-3.6.4-1.4.5-2.8.5-4.3v-33.4h13.4v34.5ZM162.9,199.1h-9.7l8.1-11.3h13l-11.4,11.3Z"/>
        <path d="M229.7,258.8l-22.3-36.2h-.2l.3,36.2h-13v-55.4h15.2l22.2,36.1h.2l-.3-36.1h13v55.4h-15.2Z"/>
        <path d="M255.5,258.8v-55.4h37.2v11.3h-24.3v10.5h23v10.7h-23v11.5h25.7v11.4h-38.6Z"/>
        <path d="M325.9,214.9v43.9h-13.4v-43.9h-15.6v-11.4h44.6v11.4h-15.6Z"/>
        <path d="M346.8,258.8v-55.4h37.2v11.3h-24.3v10.5h23v10.7h-23v11.5h25.7v11.4h-38.6Z"/>
        <path d="M448.4,258.8l-4.3-10.9h-21.4l-4.1,10.9h-14.5l23.2-55.4h13l23,55.4h-14.9ZM433.5,218.2l-7,19h13.9l-6.9-19Z"/>
        <path d="M467.1,258.8v-55.4h13.4v43.7h21.4v11.6h-34.9Z"/>
        <path d="M177.2,336c-3.6,1.6-7.7,2.5-12.4,2.5s-8.2-.7-11.8-2.1c-3.6-1.4-6.8-3.4-9.4-6-2.7-2.6-4.7-5.7-6.3-9.3-1.5-3.6-2.3-7.6-2.3-11.9s.8-8.4,2.3-12c1.5-3.6,3.7-6.7,6.4-9.2,2.7-2.5,5.9-4.5,9.5-5.8,3.6-1.4,7.6-2,11.8-2s7.8.7,11.5,2.1c3.8,1.4,6.8,3.4,9.2,6.1l-9.1,9.1c-1.3-1.7-2.9-3-4.9-3.8-2-.8-4.1-1.3-6.3-1.3s-4.5.4-6.4,1.3c-2,.9-3.6,2-5,3.6-1.4,1.5-2.5,3.3-3.3,5.4-.8,2.1-1.2,4.3-1.2,6.8s.4,4.8,1.2,6.9c.8,2.1,1.9,3.9,3.2,5.4,1.4,1.5,3,2.6,5,3.5,1.9.8,4,1.3,6.3,1.3s5-.5,7-1.6c2-1,3.6-2.4,4.8-4.1l9.3,8.8c-2.5,2.8-5.5,5-9.1,6.7Z"/>
        <path d="M227.8,337l-4.3-10.9h-21.4l-4.1,10.9h-14.5l23.2-55.4h13l23,55.4h-14.9ZM213,296.4l-7,19h13.9l-6.9-19Z"/>
        <path d="M265.5,293v43.9h-13.4v-43.9h-15.6v-11.4h44.6v11.4h-15.6Z"/>
        <path d="M319.3,337l-4.3-10.9h-21.4l-4.1,10.9h-14.5l23.2-55.4h13l23,55.4h-14.9ZM304.4,296.4l-7,19h13.9l-6.9-19ZM308.7,277.3h-9.7l8.1-11.3h13l-11.4,11.3Z"/>
        <path d="M338,337v-55.4h13.4v43.7h21.4v11.6h-34.9Z"/>
        <path d="M433.7,309.1c0,4.4-.8,8.4-2.3,12-1.5,3.6-3.6,6.7-6.3,9.3-2.7,2.6-5.9,4.6-9.6,6-3.7,1.4-7.7,2.1-12,2.1s-8.3-.7-12-2.1c-3.7-1.4-6.9-3.4-9.5-6-2.7-2.6-4.8-5.7-6.3-9.3-1.5-3.6-2.3-7.6-2.3-12s.8-8.4,2.3-12c1.5-3.6,3.6-6.6,6.3-9.1,2.7-2.5,5.9-4.4,9.5-5.8,3.7-1.4,7.7-2,12-2s8.3.7,12,2c3.7,1.4,6.9,3.3,9.6,5.8,2.7,2.5,4.8,5.5,6.3,9.1,1.5,3.6,2.3,7.6,2.3,12ZM419.4,309.1c0-2.4-.4-4.6-1.2-6.7-.8-2.1-1.9-3.9-3.2-5.4-1.4-1.5-3-2.7-5-3.5s-4.1-1.3-6.4-1.3-4.5.4-6.4,1.3c-1.9.9-3.6,2-5,3.5-1.4,1.5-2.5,3.3-3.2,5.4-.8,2.1-1.1,4.3-1.1,6.7s.4,4.8,1.2,6.9c.8,2.1,1.9,3.9,3.2,5.4,1.4,1.5,3,2.7,5,3.6,1.9.9,4.1,1.3,6.4,1.3s4.5-.4,6.4-1.3c1.9-.9,3.6-2,5-3.6,1.4-1.5,2.5-3.3,3.3-5.4s1.2-4.4,1.2-6.9Z"/>
        <path d="M481.4,337.1c-3.6.9-7.6,1.3-11.8,1.3s-8.5-.7-12.2-2.1c-3.7-1.4-6.9-3.4-9.6-5.9-2.7-2.6-4.8-5.6-6.3-9.2-1.5-3.6-2.3-7.5-2.3-11.9s.8-8.4,2.3-12c1.5-3.6,3.7-6.7,6.4-9.2,2.7-2.5,5.9-4.5,9.5-5.8,3.6-1.4,7.6-2,11.8-2s8.4.7,12.2,2c3.8,1.3,6.8,3.1,9.1,5.4l-8.4,9.6c-1.3-1.5-3-2.7-5.2-3.7-2.1-1-4.6-1.4-7.3-1.4s-4.5.4-6.5,1.3c-2,.9-3.7,2.1-5.2,3.6-1.5,1.5-2.6,3.4-3.4,5.5-.8,2.1-1.2,4.4-1.2,6.9s.4,4.9,1.1,7c.7,2.1,1.8,4,3.2,5.5,1.4,1.5,3.2,2.7,5.3,3.6,2.1.9,4.5,1.3,7.2,1.3s3-.1,4.5-.4c1.4-.2,2.7-.6,3.9-1.1v-10.1h-10.6v-10.8h22.8v29.3c-2.7,1.4-5.9,2.6-9.5,3.4Z"/>
        <path d="M558.8,309.1c0,4.4-.8,8.4-2.3,12-1.5,3.6-3.6,6.7-6.3,9.3-2.7,2.6-5.9,4.6-9.6,6-3.7,1.4-7.7,2.1-12,2.1s-8.3-.7-12-2.1c-3.7-1.4-6.9-3.4-9.5-6-2.7-2.6-4.8-5.7-6.3-9.3-1.5-3.6-2.3-7.6-2.3-12s.8-8.4,2.3-12c1.5-3.6,3.6-6.6,6.3-9.1,2.7-2.5,5.9-4.4,9.5-5.8,3.7-1.4,7.7-2,12-2s8.3.7,12,2c3.7,1.4,6.9,3.3,9.6,5.8,2.7,2.5,4.8,5.5,6.3,9.1,1.5,3.6,2.3,7.6,2.3,12ZM544.4,309.1c0-2.4-.4-4.6-1.2-6.7-.8-2.1-1.9-3.9-3.2-5.4-1.4-1.5-3-2.7-5-3.5s-4.1-1.3-6.4-1.3-4.5.4-6.4,1.3c-1.9.9-3.6,2-5,3.5-1.4,1.5-2.5,3.3-3.2,5.4-.8,2.1-1.1,4.3-1.1,6.7s.4,4.8,1.2,6.9,1.9,3.9,3.2,5.4c1.4,1.5,3,2.7,5,3.6,1.9.9,4.1,1.3,6.4,1.3s4.5-.4,6.4-1.3c1.9-.9,3.6-2,5-3.6,1.4-1.5,2.5-3.3,3.3-5.4s1.2-4.4,1.2-6.9Z"/>
      </g>
      <g>
        <path class="st2" d="M179.7,380.4c0,4-.7,7.5-2.2,10.5-1.5,2.9-3.5,5.3-5.9,7.2-2.5,1.9-5.2,3.3-8.3,4.2-3.1.9-6.2,1.3-9.4,1.3h-17.2v-46.1h16.7c3.3,0,6.5.4,9.6,1.1,3.2.8,6,2,8.5,3.8,2.5,1.8,4.5,4.1,6,7.1,1.5,3,2.3,6.6,2.3,10.9ZM168.1,380.4c0-2.6-.4-4.8-1.3-6.5-.8-1.7-2-3.1-3.4-4.1-1.4-1-3-1.7-4.8-2.2-1.8-.4-3.7-.7-5.6-.7h-5.5v27h5.3c2,0,3.9-.2,5.8-.7,1.8-.5,3.5-1.2,4.9-2.2,1.4-1,2.5-2.4,3.4-4.2.8-1.7,1.3-3.9,1.3-6.4Z"/>
        <path class="st2" d="M185.5,403.6v-46.1h31v9.4h-20.3v8.7h19.2v8.9h-19.2v9.6h21.4v9.5h-32.2Z"/>
        <path class="st2" d="M246,403.6v-46.1h11.2v36.4h17.9v9.7h-29.1Z"/>
        <path class="st2" d="M324.8,380.3c0,3.6-.6,7-1.9,10-1.3,3-3,5.6-5.2,7.8-2.2,2.1-4.9,3.8-8,5-3.1,1.2-6.4,1.8-10,1.8s-6.9-.6-10-1.8c-3.1-1.2-5.7-2.8-7.9-5-2.2-2.1-4-4.7-5.2-7.8-1.3-3-1.9-6.4-1.9-10s.6-7,1.9-10c1.3-3,3-5.5,5.2-7.6,2.2-2.1,4.9-3.7,7.9-4.8,3.1-1.1,6.4-1.7,10-1.7s6.9.6,10,1.7c3.1,1.1,5.7,2.7,8,4.8,2.2,2.1,4,4.6,5.2,7.6,1.3,3,1.9,6.3,1.9,10ZM312.8,380.3c0-2-.3-3.9-1-5.6-.7-1.7-1.6-3.2-2.7-4.5-1.2-1.2-2.5-2.2-4.2-2.9-1.6-.7-3.4-1.1-5.4-1.1s-3.7.4-5.3,1.1c-1.6.7-3,1.7-4.2,2.9-1.2,1.2-2.1,2.7-2.7,4.5-.6,1.7-.9,3.6-.9,5.6s.3,4,1,5.8c.7,1.8,1.6,3.3,2.7,4.5,1.2,1.3,2.5,2.2,4.1,3,1.6.7,3.4,1.1,5.3,1.1s3.7-.4,5.3-1.1c1.6-.7,3-1.7,4.2-3,1.2-1.3,2.1-2.8,2.7-4.5s1-3.7,1-5.8Z"/>
        <path class="st2" d="M354.9,369.5c-1-1.2-2.2-2.2-3.7-2.9-1.5-.7-3-1.1-4.5-1.1s-1.5,0-2.2.2c-.8.1-1.4.4-2.1.7-.6.4-1.1.8-1.5,1.4-.4.6-.6,1.3-.6,2.2s.2,1.4.5,2,.8,1,1.4,1.4c.6.4,1.4.7,2.2,1.1.9.3,1.8.7,2.9,1,1.6.5,3.2,1.1,4.9,1.7,1.7.6,3.2,1.5,4.6,2.5,1.4,1,2.5,2.3,3.5,3.9.9,1.5,1.4,3.5,1.4,5.8s-.5,4.9-1.5,6.9c-1,1.9-2.3,3.5-3.9,4.8-1.7,1.3-3.5,2.2-5.7,2.8-2.1.6-4.3.9-6.6.9-3.3,0-6.5-.6-9.6-1.7-3.1-1.2-5.6-2.8-7.7-4.9l7.3-7.4c1.1,1.4,2.6,2.6,4.5,3.5,1.8.9,3.7,1.4,5.5,1.4s1.6,0,2.4-.3c.8-.2,1.5-.5,2.1-.8.6-.4,1.1-.9,1.4-1.6.3-.7.5-1.4.5-2.3s-.2-1.6-.7-2.2c-.4-.6-1.1-1.2-1.9-1.7-.8-.5-1.8-1-3-1.4-1.2-.4-2.6-.9-4.1-1.3-1.5-.5-2.9-1-4.3-1.7-1.4-.7-2.7-1.5-3.8-2.5-1.1-1-2-2.3-2.7-3.7-.7-1.5-1-3.2-1-5.3s.5-4.8,1.6-6.6c1-1.8,2.4-3.3,4.1-4.5s3.6-2,5.7-2.6c2.1-.5,4.3-.8,6.4-.8s5.3.5,8,1.4c2.7,1,5.1,2.4,7.1,4.2l-7.1,7.5Z"/>
        <path class="st2" d="M419.5,403.6l-3.6-9.1h-17.9l-3.4,9.1h-12.1l19.3-46.1h10.8l19.2,46.1h-12.4ZM407.1,369.8l-5.9,15.8h11.6l-5.7-15.8Z"/>
        <path class="st2" d="M445.1,367v9.5h17.9v9.2h-17.9v17.9h-11v-46.1h30.4v9.5h-19.3Z"/>
        <path class="st2" d="M469.9,403.6v-46.1h11.2v46.1h-11.2Z"/>
        <path class="st2" d="M489,403.6v-46.1h11.2v36.4h17.9v9.7h-29.1Z"/>
        <path class="st2" d="M521.7,403.6v-46.1h11.2v46.1h-11.2Z"/>
        <path class="st2" d="M572,403.6l-3.6-9.1h-17.9l-3.4,9.1h-12.1l19.3-46.1h10.8l19.2,46.1h-12.4ZM559.6,369.8l-5.9,15.8h11.6l-5.7-15.8Z"/>
        <path class="st2" d="M629.7,380.4c0,4-.7,7.5-2.2,10.5-1.5,2.9-3.5,5.3-5.9,7.2-2.5,1.9-5.2,3.3-8.3,4.2-3.1.9-6.2,1.3-9.4,1.3h-17.2v-46.1h16.7c3.3,0,6.5.4,9.6,1.1,3.2.8,6,2,8.5,3.8,2.5,1.8,4.5,4.1,6,7.1,1.5,3,2.3,6.6,2.3,10.9ZM618.1,380.4c0-2.6-.4-4.8-1.3-6.5-.8-1.7-2-3.1-3.4-4.1-1.4-1-3-1.7-4.8-2.2-1.8-.4-3.7-.7-5.6-.7h-5.5v27h5.3c2,0,3.9-.2,5.8-.7,1.8-.5,3.5-1.2,4.9-2.2,1.4-1,2.5-2.4,3.4-4.2.8-1.7,1.3-3.9,1.3-6.4Z"/>
        <path class="st2" d="M683.5,380.3c0,3.6-.6,7-1.9,10-1.3,3-3,5.6-5.2,7.8-2.2,2.1-4.9,3.8-8,5-3.1,1.2-6.4,1.8-10,1.8s-6.9-.6-10-1.8-5.7-2.8-7.9-5c-2.2-2.1-4-4.7-5.2-7.8-1.3-3-1.9-6.4-1.9-10s.6-7,1.9-10c1.3-3,3-5.5,5.2-7.6,2.2-2.1,4.9-3.7,7.9-4.8,3.1-1.1,6.4-1.7,10-1.7s6.9.6,10,1.7c3.1,1.1,5.7,2.7,8,4.8,2.2,2.1,4,4.6,5.2,7.6,1.3,3,1.9,6.3,1.9,10ZM671.6,380.3c0-2-.3-3.9-1-5.6-.7-1.7-1.6-3.2-2.7-4.5-1.2-1.2-2.5-2.2-4.2-2.9-1.6-.7-3.4-1.1-5.4-1.1s-3.7.4-5.3,1.1c-1.6.7-3,1.7-4.2,2.9-1.2,1.2-2.1,2.7-2.7,4.5-.6,1.7-.9,3.6-.9,5.6s.3,4,1,5.8,1.6,3.3,2.7,4.5c1.2,1.3,2.5,2.2,4.1,3,1.6.7,3.4,1.1,5.3,1.1s3.7-.4,5.3-1.1c1.6-.7,3-1.7,4.2-3,1.2-1.3,2.1-2.8,2.7-4.5s1-3.7,1-5.8Z"/>
        <path class="st2" d="M713.6,369.5c-1-1.2-2.2-2.2-3.7-2.9-1.5-.7-3-1.1-4.5-1.1s-1.5,0-2.2.2c-.8.1-1.4.4-2.1.7-.6.4-1.1.8-1.5,1.4-.4.6-.6,1.3-.6,2.2s.2,1.4.5,2,.8,1,1.4,1.4c.6.4,1.4.7,2.2,1.1.9.3,1.8.7,2.9,1,1.6.5,3.2,1.1,4.9,1.7,1.7.6,3.2,1.5,4.6,2.5,1.4,1,2.5,2.3,3.5,3.9.9,1.5,1.4,3.5,1.4,5.8s-.5,4.9-1.5,6.9c-1,1.9-2.3,3.5-3.9,4.8-1.7,1.3-3.5,2.2-5.7,2.8-2.1.6-4.3.9-6.6.9-3.3,0-6.5-.6-9.6-1.7-3.1-1.2-5.6-2.8-7.7-4.9l7.3-7.4c1.1,1.4,2.6,2.6,4.5,3.5,1.8.9,3.7,1.4,5.5,1.4s1.6,0,2.4-.3c.8-.2,1.5-.5,2.1-.8.6-.4,1.1-.9,1.4-1.6.3-.7.5-1.4.5-2.3s-.2-1.6-.7-2.2c-.4-.6-1.1-1.2-1.9-1.7-.8-.5-1.8-1-3-1.4-1.2-.4-2.6-.9-4.1-1.3-1.5-.5-2.9-1-4.3-1.7-1.4-.7-2.7-1.5-3.8-2.5-1.1-1-2-2.3-2.7-3.7-.7-1.5-1-3.2-1-5.3s.5-4.8,1.6-6.6c1-1.8,2.4-3.3,4.1-4.5,1.7-1.2,3.6-2,5.7-2.6,2.1-.5,4.3-.8,6.4-.8s5.3.5,8,1.4c2.7,1,5.1,2.4,7.1,4.2l-7.1,7.5Z"/>
        <path class="st2" d="M479.5,465.5l-3.6-9.1h-17.9l-3.4,9.1h-12.1l19.3-46.1h10.8l19.2,46.1h-12.4ZM467.1,431.7l-5.9,15.8h11.6l-5.7-15.8Z"/>
        <path class="st2" d="M507.5,465.5v-46.1h11.2v36.4h17.9v9.7h-29.1Z"/>
        <path class="st2" d="M571.4,465.5l-3.6-9.1h-17.9l-3.4,9.1h-12.1l19.3-46.1h10.8l19.2,46.1h-12.4ZM559.1,431.7l-5.9,15.8h11.6l-5.7-15.8Z"/>
        <path d="M632.5,464.7c-3,1.4-6.4,2.1-10.4,2.1s-6.9-.6-9.9-1.8c-3-1.2-5.6-2.8-7.9-5s-4-4.7-5.2-7.7c-1.3-3-1.9-6.3-1.9-9.9s.6-7,1.9-10c1.3-3,3.1-5.5,5.3-7.7,2.3-2.1,4.9-3.7,7.9-4.9,3-1.1,6.3-1.7,9.8-1.7s6.5.6,9.6,1.7c3.1,1.2,5.7,2.8,7.7,5l-7.6,7.6c-1-1.4-2.4-2.5-4.1-3.2-1.7-.7-3.4-1-5.2-1s-3.7.4-5.4,1.1c-1.6.7-3,1.7-4.2,3-1.2,1.3-2.1,2.7-2.7,4.5-.7,1.7-1,3.6-1,5.6s.3,4,1,5.7c.7,1.7,1.6,3.2,2.7,4.5,1.2,1.2,2.5,2.2,4.1,2.9,1.6.7,3.4,1,5.3,1s4.1-.4,5.8-1.3c1.6-.9,3-2,4-3.4l7.8,7.3c-2,2.3-4.6,4.2-7.6,5.6Z"/>
        <path d="M678.2,433.6c0,2.7-.5,5-1.5,6.8-1,1.8-2.3,3.3-4,4.5-1.7,1.1-3.6,2-5.9,2.5s-4.5.8-6.9.8h-5.5v17.4h-11.1v-46.1h16.9c2.5,0,4.9.3,7.1.7,2.2.5,4.1,1.3,5.7,2.4,1.6,1.1,2.9,2.6,3.8,4.4.9,1.8,1.4,4,1.4,6.7ZM667.1,433.6c0-1.1-.2-2-.7-2.7-.4-.7-1-1.2-1.8-1.6-.7-.4-1.6-.7-2.5-.8-.9-.1-1.9-.2-2.9-.2h-4.9v10.9h4.7c1,0,2,0,3-.3,1-.2,1.8-.5,2.6-.9.8-.4,1.4-1,1.8-1.7.4-.7.7-1.6.7-2.7Z"/>
        <path d="M706.2,465.5h-11.1l-17.5-46.1h12.5l10.7,32.7h.3l10.6-32.7h12.3l-17.8,46.1Z"/>
      </g>
    </g>
    <g>
      <g>
        <path d="M803.6,556.6v-112.8h143.4c14.9,0,27.1-12.1,27.1-27.1s-12.1-27.1-27.1-27.1h-143.4v-22.2h143.4c27.2,0,49.3,22.1,49.3,49.3s-22.1,49.3-49.3,49.3h-121.1v90.5h-22.3Z"/>
        <path d="M947,470.7c29.8,0,53.9-24.1,53.9-53.9s-24.2-53.9-53.9-53.9h-148v31.5h148c12.4,0,22.5,10.1,22.5,22.5s-10,22.5-22.5,22.5h-147.9v121.9h31.4v-90.4h116.5ZM793.7,433.9h153.3c9.4,0,17.1-7.7,17.1-17.1s-7.7-17.1-17.1-17.1h-153.3v-42.1h153.3c32.7,0,59.3,26.5,59.3,59.3s-26.5,59.3-59.3,59.3h-111.2v90.4h-42.1v-132.5Z"/>
      </g>
      <g>
        <path d="M888,507.3c-.2-.3-.5-.6-.8-.9-.3-.2-.6-.4-1-.6-.4-.1-.8-.2-1.2-.2-.8,0-1.4.1-2,.4-.5.3-1,.7-1.3,1.2-.3.5-.6,1.1-.7,1.7-.2.6-.2,1.3-.2,2s0,1.3.2,1.9c.2.6.4,1.2.7,1.7.3.5.8.9,1.3,1.2.5.3,1.2.4,2,.4s1.9-.3,2.4-1c.6-.6.9-1.5,1.1-2.5h3.3c0,1-.3,1.8-.7,2.6-.4.8-.8,1.4-1.4,2-.6.6-1.3,1-2.1,1.3-.8.3-1.7.4-2.6.4s-2.3-.2-3.2-.6c-.9-.4-1.7-1-2.4-1.7-.7-.7-1.2-1.6-1.5-2.6-.3-1-.5-2-.5-3.2s.2-2.2.5-3.2c.3-1,.8-1.9,1.5-2.6.7-.7,1.5-1.3,2.4-1.7.9-.4,2-.6,3.2-.6s1.7.1,2.4.4c.8.2,1.4.6,2,1.1.6.5,1.1,1.1,1.5,1.7.4.7.6,1.5.7,2.4h-3.3c0-.4-.2-.7-.4-1.1Z"/>
        <path d="M901.9,503.2l5.8,15.5h-3.5l-1.2-3.5h-5.8l-1.2,3.5h-3.4l5.9-15.5h3.5ZM902.1,512.7l-2-5.7h0l-2,5.7h4Z"/>
        <path d="M913.1,503.2l3.6,10.7h0l3.4-10.7h4.8v15.5h-3.2v-11h0l-3.8,11h-2.6l-3.8-10.9h0v10.9h-3.2v-15.5h4.8Z"/>
        <path d="M935,503.2l5.8,15.5h-3.5l-1.2-3.5h-5.8l-1.2,3.5h-3.4l5.9-15.5h3.5ZM935.2,512.7l-2-5.7h0l-2,5.7h4Z"/>
        <path d="M949.9,503.2c.7,0,1.3.1,1.9.3.6.2,1,.5,1.4.9.4.4.7.8.9,1.4.2.5.3,1.1.3,1.7,0,.9-.2,1.7-.6,2.4-.4.7-1,1.2-1.9,1.5h0c.4.2.8.3,1,.6s.5.5.7.8c.2.3.3.7.4,1.1,0,.4.1.8.2,1.2,0,.2,0,.5,0,.9,0,.3,0,.7,0,1,0,.3,0,.7.2,1,0,.3.2.6.4.8h-3.4c-.2-.5-.3-1.1-.3-1.8,0-.7-.1-1.3-.2-2-.1-.8-.4-1.4-.7-1.8-.4-.4-1-.6-1.8-.6h-3.4v6.1h-3.4v-15.5h8.4ZM948.6,510.2c.8,0,1.4-.2,1.8-.5.4-.3.6-.9.6-1.7s-.2-1.3-.6-1.6c-.4-.3-1-.5-1.8-.5h-3.7v4.4h3.7Z"/>
        <path d="M964.9,503.2l5.8,15.5h-3.5l-1.2-3.5h-5.8l-1.2,3.5h-3.4l5.9-15.5h3.5ZM965.1,512.7l-2-5.7h0l-2,5.7h4Z"/>
        <g>
          <path d="M867.8,527.2c1,0,1.8.1,2.5.4.7.3,1.2.7,1.7,1.1.4.5.7,1,.9,1.6.2.6.3,1.2.3,1.8s0,1.2-.3,1.8c-.2.6-.5,1.1-.9,1.6-.4.5-1,.8-1.7,1.1-.7.3-1.5.4-2.5.4h-3.6v5.6h-3.4v-15.5h7ZM866.9,534.5c.4,0,.8,0,1.1,0,.4,0,.7-.2,1-.3.3-.2.5-.4.7-.7.2-.3.2-.7.2-1.2s0-.9-.2-1.2c-.2-.3-.4-.5-.7-.7-.3-.2-.6-.3-1-.3-.4,0-.7,0-1.1,0h-2.6v4.6h2.6Z"/>
          <path d="M886.1,527.2v2.9h-8.2v3.3h7.5v2.6h-7.5v3.8h8.4v2.9h-11.8v-15.5h11.6Z"/>
          <path d="M887.5,530.1v-2.9h12.7v2.9h-4.6v12.6h-3.4v-12.6h-4.6Z"/>
          <path d="M909.9,527.2c.7,0,1.3.1,1.9.3.6.2,1,.5,1.4.9.4.4.7.8.9,1.4.2.5.3,1.1.3,1.7,0,.9-.2,1.7-.6,2.4-.4.7-1,1.2-1.9,1.5h0c.4.2.8.3,1,.6s.5.5.7.8c.2.3.3.7.4,1.1,0,.4.1.8.2,1.2,0,.2,0,.5,0,.9,0,.3,0,.7,0,1s0,.7.2,1c0,.3.2.6.4.8h-3.4c-.2-.5-.3-1.1-.3-1.8,0-.7-.1-1.3-.2-2-.1-.8-.4-1.4-.7-1.8s-1-.6-1.8-.6h-3.4v6.1h-3.4v-15.5h8.4ZM908.7,534.2c.8,0,1.4-.2,1.8-.5.4-.3.6-.9.6-1.7s-.2-1.3-.6-1.6c-.4-.3-1-.5-1.8-.5h-3.7v4.4h3.7Z"/>
          <path d="M916.7,531.8c.3-1,.8-1.9,1.5-2.6.7-.7,1.5-1.3,2.4-1.7.9-.4,2-.6,3.2-.6s2.3.2,3.2.6c.9.4,1.7,1,2.4,1.7.7.7,1.2,1.6,1.5,2.6.3,1,.5,2.1.5,3.2s-.2,2.2-.5,3.2c-.3,1-.8,1.8-1.5,2.6-.7.7-1.4,1.3-2.4,1.7-.9.4-2,.6-3.2.6s-2.3-.2-3.2-.6c-.9-.4-1.7-1-2.4-1.7-.7-.7-1.2-1.6-1.5-2.6-.3-1-.5-2-.5-3.2s.2-2.2.5-3.2ZM919.9,536.9c.2.6.4,1.2.7,1.7.3.5.8.9,1.3,1.2.5.3,1.2.4,2,.4s1.4-.1,2-.4c.5-.3,1-.7,1.3-1.2.3-.5.6-1,.7-1.7.2-.6.2-1.2.2-1.9s0-1.3-.2-2c-.2-.6-.4-1.2-.7-1.7-.3-.5-.8-.9-1.3-1.2-.5-.3-1.2-.4-2-.4s-1.4.1-2,.4c-.5.3-1,.7-1.3,1.2s-.6,1.1-.7,1.7c-.2.6-.2,1.3-.2,2s0,1.3.2,1.9Z"/>
          <path d="M936.2,527.2v12.6h7.6v2.9h-11v-15.5h3.4Z"/>
          <path d="M956.6,527.2v2.9h-8.2v3.3h7.5v2.6h-7.5v3.8h8.4v2.9h-11.8v-15.5h11.6Z"/>
          <path d="M966.5,527.2c.7,0,1.3.1,1.9.3.6.2,1,.5,1.4.9.4.4.7.8.9,1.4.2.5.3,1.1.3,1.7,0,.9-.2,1.7-.6,2.4-.4.7-1,1.2-1.9,1.5h0c.4.2.8.3,1,.6.3.2.5.5.7.8.2.3.3.7.4,1.1,0,.4.1.8.2,1.2,0,.2,0,.5,0,.9,0,.3,0,.7,0,1s0,.7.2,1c0,.3.2.6.4.8h-3.4c-.2-.5-.3-1.1-.3-1.8,0-.7-.1-1.3-.2-2-.1-.8-.4-1.4-.7-1.8s-1-.6-1.8-.6h-3.4v6.1h-3.4v-15.5h8.4ZM965.3,534.2c.8,0,1.4-.2,1.8-.5.4-.3.6-.9.6-1.7s-.2-1.3-.6-1.6c-.4-.3-1-.5-1.8-.5h-3.7v4.4h3.7Z"/>
          <path d="M982.1,527.2l5.8,15.5h-3.5l-1.2-3.5h-5.8l-1.2,3.5h-3.4l5.9-15.5h3.5ZM982.3,536.7l-2-5.7h0l-2,5.7h4Z"/>
        </g>
        <g>
          <path d="M852.5,550.9c1,0,1.9.2,2.8.5.9.3,1.6.8,2.2,1.4.6.6,1.1,1.4,1.5,2.4.4,1,.5,2.1.5,3.4s-.1,2.2-.4,3.1c-.3,1-.7,1.8-1.3,2.5-.6.7-1.3,1.2-2.2,1.6-.9.4-1.9.6-3.1.6h-6.7v-15.5h6.7ZM852.2,563.5c.5,0,1,0,1.4-.2.5-.2.9-.4,1.2-.8.4-.4.7-.9.9-1.4.2-.6.3-1.3.3-2.2s0-1.5-.2-2.1c-.2-.6-.4-1.2-.7-1.6-.3-.4-.8-.8-1.4-1-.6-.2-1.3-.4-2.1-.4h-2.4v9.8h3Z"/>
          <path d="M873,550.9v2.9h-8.2v3.3h7.5v2.6h-7.5v3.8h8.4v2.9h-11.8v-15.5h11.6Z"/>
          <path d="M885.8,566.4l-5-15.5h3.5l3.5,10.9h0l3.5-10.9h3.5l-5.1,15.5h-3.8Z"/>
          <path d="M907.7,550.9v2.9h-8.2v3.3h7.5v2.6h-7.5v3.8h8.4v2.9h-11.8v-15.5h11.6Z"/>
          <path d="M912.6,550.9l6.5,10.4h0v-10.4h3.2v15.5h-3.4l-6.5-10.4h0v10.4h-3.2v-15.5h3.4Z"/>
          <path d="M935.3,550.9v2.9h-8.2v3.3h7.5v2.6h-7.5v3.8h8.4v2.9h-11.8v-15.5h11.6Z"/>
          <path d="M945.1,553.7h-7.7v-2.9h12.2v2.7l-8.3,9.9h8.5v2.9h-13.1v-2.7l8.3-9.9Z"/>
          <path d="M962.6,565.2c-1.2,1-2.8,1.5-4.9,1.5s-3.7-.5-4.9-1.5c-1.2-1-1.7-2.6-1.7-4.7v-9.6h3.4v9.6c0,.4,0,.8.1,1.2,0,.4.2.8.5,1.1s.6.6,1,.8c.4.2,1,.3,1.7.3,1.2,0,2.1-.3,2.5-.8.5-.5.7-1.4.7-2.6v-9.6h3.4v9.6c0,2.1-.6,3.7-1.8,4.7Z"/>
          <path d="M977.3,550.9v2.9h-8.2v3.3h7.5v2.6h-7.5v3.8h8.4v2.9h-11.8v-15.5h11.6Z"/>
          <path d="M982.2,550.9v12.6h7.6v2.9h-11v-15.5h3.4Z"/>
          <path d="M1000.5,550.9l5.8,15.5h-3.5l-1.2-3.5h-5.8l-1.2,3.5h-3.4l5.9-15.5h3.5ZM1000.7,560.4l-2-5.7h0l-2,5.7h4Z"/>
        </g>
      </g>
    </g>
  </g>
</svg>